<?xml version="1.0" encoding="UTF-8" standalone="no"?>
<svg xmlns:dc="http://purl.org/dc/elements/1.1/" xmlns:cc="http://creativecommons.org/ns#" xmlns:rdf="http://www.w3.org/1999/02/22-rdf-syntax-ns#" xmlns:svg="http://www.w3.org/2000/svg" xmlns="http://www.w3.org/2000/svg" xmlns:sodipodi="http://sodipodi.sourceforge.net/DTD/sodipodi-0.dtd" xmlns:inkscape="http://www.inkscape.org/namespaces/inkscape" inkscape:version="1.0rc1 (09960d6, 2020-04-09)" sodipodi:docname="Avatar Logo (2016).svg" viewBox="0 0 1000 234.5556" height="234.5556" width="1000" id="svg44" version="1.1" style="cursor: default;">
  <metadata id="metadata50">
    <rdf:RDF>
      <cc:Work rdf:about="">
        <dc:format>image/svg+xml</dc:format>
        <dc:type rdf:resource="http://purl.org/dc/dcmitype/StillImage"/>
        <dc:title/>
      </cc:Work>
    </rdf:RDF>
  </metadata>
  <defs id="defs48"/>
  <sodipodi:namedview inkscape:current-layer="g52" inkscape:window-maximized="0" inkscape:window-y="23" inkscape:window-x="0" inkscape:cy="107.1836" inkscape:cx="500.00525" inkscape:zoom="1.6369048" fit-margin-bottom="0" fit-margin-right="0" fit-margin-left="0" fit-margin-top="0" showgrid="false" id="namedview46" inkscape:window-height="712" inkscape:window-width="1380" inkscape:pageshadow="2" inkscape:pageopacity="0" guidetolerance="10" gridtolerance="10" objecttolerance="10" borderopacity="1" bordercolor="#666666" pagecolor="#ffffff" inkscape:document-rotation="0"/>
  <g transform="translate(284.88007,57.977833)" id="g52" inkscape:label="Image" inkscape:groupmode="layer">
    <path inkscape:connector-curvature="0" id="path56" d="m -183.65196,175.48435 c -0.50963,-0.61407 -1.34195,-1.11648 -1.84959,-1.11648 -1.2563,0 -0.845,-2.61179 1.08932,-6.91741 1.52922,-3.40388 1.59128,-4.43066 1.3497,-22.32972 -0.16063,-11.90202 -0.55442,-19.28237 -1.07701,-20.1856 -0.81128,-1.4022 -0.83044,-1.4022 -1.26189,0 -0.74295,2.41452 -0.0481,13.97604 0.95209,15.84188 0.74191,1.38403 0.74596,1.64099 0.0188,1.19155 -0.69539,-0.42978 -0.80442,-0.0336 -0.4362,1.58491 0.38771,1.70414 0.32591,1.88653 -0.29388,0.86735 -0.43173,-0.70981 -1.08665,-4.56169 -1.45547,-8.55973 -1.17134,-12.69748 -2.79692,-15.83992 -13.77136,-26.6216 -4.58367,-4.50317 -9.28145,-9.862302 -10.43951,-11.909194 -1.15806,-2.046892 -2.63505,-4.351185 -3.2822,-5.120653 -0.93946,-1.117031 -0.35974,-0.987174 2.87599,0.644212 2.22894,1.123788 6.75071,3.16437 10.04838,4.534617 l 5.99576,2.491358 -2.60514,-2.235713 c -1.43282,-1.229637 -6.45701,-4.20479 -11.16486,-6.61146 -4.70785,-2.406668 -9.42052,-5.323706 -10.47259,-6.482305 -4.23016,-4.658495 -9.67509,-12.234549 -8.24165,-11.467395 2.80848,1.503051 2.93726,0.804056 0.36664,-1.990093 -5.23417,-5.689318 -5.1995,-5.61633 -2.38319,-5.017051 l 2.49485,0.530882 -1.94562,-2.129826 c -1.07009,-1.171394 -2.30976,-3.221412 -2.75484,-4.555592 -0.77743,-2.330487 -0.74766,-2.392831 0.75795,-1.587049 1.55822,0.833934 1.55775,0.823493 -0.0823,-1.830226 -0.90722,-1.467926 -2.46744,-4.75609 -3.46715,-7.307032 -0.99971,-2.550948 -2.73749,-5.631199 -3.86174,-6.845006 -1.96556,-2.122136 6.25119,4.764441 29.85187,25.019278 10.19152,8.746667 13.13565,10.706896 13.13565,8.745811 0,-0.409378 1.08858,-0.694143 2.41906,-0.632801 2.31438,0.106694 2.32858,0.125139 0.3282,0.425842 -1.14997,0.172869 -2.27112,0.784085 -2.49144,1.358236 -0.54492,1.420043 1.94331,5.247463 5.97059,9.183994 4.27647,4.180109 5.68278,3.827725 5.68278,-1.423946 0,-2.336404 -0.28534,-3.612562 -0.74432,-3.328893 -1.169,0.722486 -0.88035,-3.629413 0.34849,-5.254087 0.60104,-0.794657 1.10346,-2.720648 1.11649,-4.279977 0.0142,-1.695533 0.32286,-2.650234 0.76799,-2.375125 0.40938,0.25301 0.74433,1.337574 0.74433,2.410136 0,1.072565 0.39623,3.045887 0.88052,4.385159 0.59836,1.654745 0.65799,3.222015 0.18608,4.890955 -0.98436,3.481212 -0.4992,8.038345 0.85577,8.038345 1.66926,0 7.69842,-5.90526 9.36554,-9.173076 1.59415,-3.124807 1.30918,-3.908536 -1.6117,-4.432533 -1.59941,-0.28693 -1.5297,-0.348067 0.49622,-0.43519 1.29636,-0.05576 2.48468,0.281615 2.64071,0.749697 0.50506,1.515177 3.42775,-0.668092 19.93433,-14.891101 24.19005,-20.843515 25.35718,-21.804579 22.65982,-18.659081 -1.25281,1.460953 -3.06844,4.642939 -4.03473,7.071081 -0.9663,2.428135 -2.36962,5.303869 -3.11851,6.390508 -1.74608,2.533562 -1.72132,3.10728 0.0922,2.136711 1.41041,-0.754826 1.4194,-0.694491 0.30082,2.020706 -0.63415,1.539323 -1.87453,3.579649 -2.75639,4.534075 l -1.60338,1.735311 2.17856,-0.546483 2.17857,-0.546483 -1.72063,2.532794 c -0.94634,1.39304 -2.59659,3.284754 -3.66722,4.203825 -2.04319,1.75397 -1.08982,2.268156 1.56806,0.845701 1.21465,-0.650065 1.04391,-0.201084 -0.77844,2.046892 -1.28391,1.583794 -3.85806,4.794921 -5.72031,7.135844 -2.73949,3.443638 -4.48309,4.775636 -9.1328,6.976843 -6.08,2.87833 -16.18207,9.097146 -15.64697,9.632248 0.17445,0.174451 4.20532,-1.306459 8.9575,-3.290895 l 8.64031,-3.608068 -2.73236,4.520035 c -1.50281,2.486022 -6.50701,8.279638 -11.12043,12.874708 -10.50244,10.46064 -12.63718,14.44832 -13.58892,25.38399 -0.61543,7.07127 -2.05519,13.26108 -2.16639,9.3137 -0.0278,-0.98561 -0.51525,-1.67473 -1.18469,-1.67473 -0.98435,0 -1.09192,1.47821 -0.79893,10.97878 0.27735,8.9939 0.61462,11.58433 1.86548,14.32824 1.95781,4.29468 1.97958,6.46531 0.0709,7.07108 -0.81875,0.25986 -1.48865,0.78484 -1.48865,1.16663 0,1.05545 -1.19393,0.82965 -2.23297,-0.42231 z m 4.2673,-34.42499 c 0.46504,-5.03313 0.68699,-13.84312 0.38814,-15.40647 -0.66827,-3.49582 -1.54233,-1.18482 -2.02757,5.36087 -0.26544,3.58053 -0.65071,7.40268 -0.85615,8.49366 -0.27945,1.48392 -0.034,2.07155 0.97426,2.33271 0.74129,0.19202 1.35976,0.38797 1.37438,0.43546 0.0147,0.0475 0.0807,-0.49982 0.14694,-1.21623 z m -78.33119,24.69539 c 1.27671,-0.9645 1.32891,-1.22353 0.37216,-1.8465 -0.61208,-0.39852 -1.77266,-0.56487 -2.57907,-0.36965 -2.99261,0.72448 -4.49619,-0.38133 -6.83175,-5.02433 -2.86559,-5.69671 -3.33735,-7.07185 -2.58552,-7.53651 0.32369,-0.20006 0.64037,-1.68666 0.70372,-3.30356 0.0634,-1.61691 0.43436,-3.7793 0.82445,-4.80531 0.74187,-1.95127 7.04061,-10.55913 8.2929,-11.33309 1.18886,-0.73475 4.93859,-8.66516 6.28174,-13.28543 0.68898,-2.37001 2.55789,-6.8613 4.15313,-9.98062 1.59524,-3.11932 3.08999,-6.85678 3.32168,-8.305466 0.84199,-5.264718 2.0302,-10.096299 2.68767,-10.928765 0.42913,-0.54335 0.1942,-1.329885 -0.64907,-2.173167 -0.83278,-0.832773 -1.0126,-1.424613 -0.48618,-1.600088 0.55488,-0.184964 0.70874,-1.856814 0.45817,-4.978436 -0.37039,-4.614192 -0.32534,-4.757447 2.4684,-7.849787 2.40791,-2.66526 2.96617,-2.973159 3.62897,-2.001488 5.73521,8.407895 7.66036,10.836411 8.61149,10.863095 0.6211,0.01744 2.88198,1.564919 5.02419,3.438867 3.27462,2.864556 3.89492,3.812876 3.89492,5.954595 0,1.401079 -0.33495,2.547413 -0.74433,2.547413 -0.40937,0 -0.74432,0.502418 -0.74432,1.116486 0,0.677731 0.69182,1.116486 1.76043,1.116486 2.35733,0 5.41328,2.508546 7.11303,5.838875 0.76377,1.49647 2.09421,3.35892 2.95653,4.13879 1.92735,1.74305 1.93656,2.4758 0.11837,9.42066 -0.79723,3.0451 -1.68219,7.88116 -1.9666,10.74681 -0.33235,3.34869 -1.05589,5.97895 -2.02508,7.36167 -1.81098,2.58372 -2.30323,10.7208 -0.86505,14.29955 0.51031,1.26983 1.16391,3.70614 1.45245,5.41401 0.63005,3.72923 4.16068,7.41784 9.69187,10.12556 2.04689,1.00202 3.31942,1.8341 2.82785,1.84906 -2.03245,0.0619 -8.88714,-1.72632 -10.25063,-2.67401 -2.13065,-1.48088 -3.06456,-1.25053 -1.58013,0.38975 1.23351,1.363 1.15649,1.42045 -2.3037,1.71804 -1.9804,0.17026 -4.74385,-0.1377 -6.18502,-0.68955 -2.41473,-0.92449 -2.49633,-0.91133 -1.11648,0.18027 1.41681,1.12088 1.34256,1.16926 -1.53869,1.0027 -1.88101,-0.10886 -3.70525,0.2998 -4.81764,1.07894 -0.98467,0.68969 -2.30194,1.24379 -2.92726,1.23135 -0.91706,-0.0186 -0.88503,-0.16934 0.16561,-0.78131 0.71641,-0.41729 1.30257,-1.07699 1.30257,-1.46602 0,-0.76554 -2.45579,-0.98074 -3.15965,-0.27689 -0.23675,0.23677 -5.06555,0.53103 -10.73067,0.65394 -5.66512,0.12281 -11.47253,0.58829 -12.90535,1.03419 -2.39701,0.74598 -2.4865,0.72111 -1.12012,-0.31115 z m 122.44497,0.43425 c -1.43282,-0.31046 -4.60144,-1.1093 -7.04138,-1.77522 -5.96745,-1.62867 -10.71666,-1.52407 -15.44688,0.34018 -2.16439,0.85304 -3.75905,1.37463 -3.54369,1.15913 1.35236,-1.35337 6.13684,-4.14982 8.34908,-4.87993 3.55642,-1.17373 4.83062,-2.78478 5.80839,-7.34399 0.45655,-2.12883 1.13794,-4.06086 1.51418,-4.29339 0.37625,-0.23253 0.68409,-1.08343 0.68409,-1.89087 0,-0.80744 0.50241,-1.66088 1.11648,-1.89651 1.39425,-0.53503 1.46574,-1.75782 0.10277,-1.75782 -1.39937,0 -2.62556,-6.79642 -2.16515,-12.00088 0.32576,-3.68245 0.0325,-4.9348 -2.44019,-10.42054 -1.54576,-3.42929 -3.72119,-7.40738 -4.83429,-8.8402 -2.97854,-3.83407 -3.3707,-7.86044 -1.06059,-10.88914 1.01075,-1.32516 1.83772,-2.87148 1.83772,-3.436273 0,-1.316963 4.03358,-5.211282 4.70363,-4.541227 0.27866,0.278647 0.50664,-0.168822 0.50664,-0.994387 0,-0.825568 1.08858,-2.930984 2.41906,-4.678704 1.33048,-1.747718 3.12253,-4.327144 3.98235,-5.732063 0.85981,-1.404912 2.24506,-3.031917 3.07833,-3.615555 0.83326,-0.583641 1.74252,-1.967533 2.02055,-3.075311 0.64691,-2.577491 4.06908,-8.441129 4.92646,-8.441129 0.35997,0 1.19401,-1.043326 1.85343,-2.318496 0.66442,-1.284853 1.4795,-2.031491 1.82826,-1.67473 0.34612,0.354068 1.77878,3.993226 3.18368,8.08701 1.40491,4.093784 3.30919,9.196113 4.23175,11.338502 1.65738,3.848796 1.66699,4.212033 0.28427,10.752262 -0.38399,1.816249 -0.20109,2.015319 2.05168,2.232973 2.33233,0.225345 2.5853,0.543222 4.43975,5.578868 2.21861,6.02448 5.79472,12.68723 8.98927,16.74817 1.18359,1.5046 2.104,3.01185 2.04533,3.34946 -0.26628,1.53223 0.15282,2.47463 1.1005,2.47463 1.380844,0 2.681388,2.13096 5.924141,9.70684 2.999767,7.0082 3.249139,8.66305 1.628373,10.8059 -1.678279,2.21888 -1.359285,3.52477 0.425121,1.74036 l 1.565276,-1.56528 2.296004,2.86785 c 4.606897,5.75428 11.221194,11.39486 13.925875,11.87576 1.432825,0.25477 3.4425,1.01177 4.465946,1.68225 1.023446,0.67047 2.36323,1.44668 2.977298,1.72494 0.889816,0.40322 0.838093,0.51657 -0.254762,0.55825 -0.754186,0.0288 -2.222878,-0.61758 -3.263757,-1.43634 -1.988365,-1.56403 -3.924725,-1.96187 -3.924725,-0.80633 0,0.37525 0.418683,0.85122 0.930406,1.0577 0.629654,0.25407 0.565202,0.39443 -0.199386,0.4342 -0.621374,0.0323 -2.362072,-0.77861 -3.868205,-1.80205 -4.715153,-3.20402 -7.272272,-2.14719 -4.551983,1.88127 l 1.242717,1.84035 -1.987041,-1.80445 c -1.754305,-1.59314 -1.987048,-1.6461 -1.987048,-0.45223 0,1.22669 -0.431976,1.29643 -4.652027,0.75102 -5.069489,-0.65521 -8.827643,-0.69001 -11.723113,-0.10862 -1.02344,0.20562 -3.03312,0.41224 -4.46594,0.45936 -2.45579,0.0807 -2.52231,0.1484 -1.16031,1.17853 1.91286,1.4468 0.41956,1.42245 -4.42212,-0.0721 -2.27135,-0.70115 -6.04207,-1.09683 -9.67622,-1.01535 -3.27503,0.0735 -7.88053,0.0788 -10.23446,0.0116 -2.35393,-0.0668 -4.27986,0.0751 -4.27986,0.31548 0,0.24032 1.42352,1.0831 3.16337,1.87285 3.22074,1.46195 2.27211,1.74938 -2.41905,0.73298 z m -143.65459,-1.37186 c -4.6774,-1.41903 -5.9546,-2.11456 -5.9546,-3.24274 0,-0.43802 2.3881,-3.07351 5.30689,-5.85663 4.6159,-4.40133 5.48815,-4.94702 6.69892,-4.19087 0.76562,0.47813 1.39203,1.43296 1.39203,2.12183 0,0.68888 0.806,2.21037 1.7911,3.3811 2.628,3.12318 2.92036,6.91749 0.53301,6.91749 -0.76863,0 -1.81448,0.50242 -2.32411,1.11649 -1.13866,1.372 -2.22665,1.33595 -7.44324,-0.24667 z m 935.61566,-9.10355 c -5.01772,-0.95583 -8.19754,-1.17871 -10.95026,-0.76754 -4.11567,0.61474 -4.8396,-0.15933 -0.88821,-0.9496 2.72892,-0.54576 8.11909,-5.62186 8.11194,-7.63925 0,-0.76458 -0.67033,-2.39497 -1.48374,-3.62311 -0.8134,-1.22813 -1.48106,-2.79178 -1.48374,-3.47477 0,-0.68298 -1.46087,-2.94748 -3.24034,-5.0322 -3.75103,-4.39445 -17.2864,-24.4233 -18.29131,-27.06639 -0.37463,-0.98516 -2.37463,-3.82621 -4.44445,-6.31342 -2.31811,-2.785438 -3.41347,-4.644753 -2.85216,-4.841268 0.67427,-0.236114 0.60923,-0.685946 -0.25046,-1.730368 -1.69581,-2.060202 -5.16348,-9.161695 -5.17508,-10.597981 -0.007,-0.678631 -0.988,-4.043958 -2.18338,-7.478508 -2.69306,-7.737342 -5.77105,-11.147717 -12.48828,-13.836819 -2.61981,-1.048767 -5.08166,-1.710032 -5.47088,-1.46949 -0.38918,0.240543 -2.10346,-0.75738 -3.80935,-2.217609 -1.706,-1.460232 -3.5439,-2.654961 -4.08427,-2.654961 -1.34158,0 -1.23677,-0.679954 0.57373,-3.721622 1.98393,-3.333098 3.4675,-4.46646 5.84316,-4.463875 1.04756,0.0015 3.24444,-0.663998 4.88195,-1.478066 1.63751,-0.814074 5.32192,-2.365151 8.18757,-3.44684 7.43447,-2.80628 15.64339,-7.847104 21.62678,-13.280391 5.04064,-4.577117 5.13591,-4.730285 3.84088,-6.171483 -1.14524,-1.274498 -1.21967,-1.961279 -0.54085,-4.99036 0.53087,-2.368647 0.54701,-4.382454 0.0498,-6.183995 -0.99944,-3.6189705 -5.70685,-8.366071 -8.29636,-8.366071 -1.09885,0 -4.92549,-1.5574126 -8.50367,-3.46091508 l -6.50586,-3.46091742 -10.13939,0.4683777 c -16.8463,0.7781958 -19.46022,1.1903026 -20.21964,3.18778762 -0.35961,0.94585948 -0.94181,7.17550518 -1.2938,13.84365318 -0.49944,9.461167 -0.41399,13.186489 0.38891,16.962014 1.7636,8.292771 1.80052,9.005066 1.09899,21.213244 -0.39582,6.889442 -0.41228,14.575931 -0.0386,18.235946 0.63223,6.199484 0.60753,6.35973 -1.22769,7.965782 -2.30792,2.019745 -2.3202,2.321517 -0.12886,3.154677 1.80045,0.684531 2.04324,2.406154 3.0504,21.629808 0.0751,1.43283 0.53426,3.54804 1.02047,4.70049 0.48618,1.15243 0.88402,2.78855 0.88402,3.6358 0,0.84725 0.38861,3.6494 0.86356,6.22701 0.75028,4.0721 0.70146,4.93383 -0.37216,6.57247 -1.52817,2.33215 -1.57111,3.42694 -0.13445,3.42694 0.60574,0 1.75045,1.25604 2.54373,2.79121 1.85888,3.59729 7.16615,8.68689 10.49707,10.06649 1.43282,0.59345 3.18012,1.72543 3.88291,2.51551 1.25083,1.40624 1.15556,1.43456 -4.52131,1.34391 -3.18959,-0.0509 -6.23037,-0.3591 -6.75735,-0.68482 -0.52707,-0.32571 -1.17329,-0.24425 -1.43617,0.18104 -0.31448,0.50892 -1.62181,0.55019 -3.82443,0.12074 -1.84062,-0.35889 -5.82611,-0.44562 -8.85663,-0.19276 -4.86081,0.40559 -5.34827,0.57799 -4.13762,1.46328 1.27479,0.9321 1.2282,1.0035 -0.65457,1.0035 -1.11486,0 -3.22939,-0.50241 -4.69906,-1.11648 -4.39479,-1.83624 -12.95533,-1.18172 -9.0032,0.68836 0.51172,0.24213 -1.58169,0.18857 -4.65203,-0.11903 -3.07034,-0.3076 -8.5193,-0.54482 -12.10881,-0.52715 -4.41289,0.0216 -6.10011,-0.18964 -5.21027,-0.65268 5.3921,-2.80572 6.16836,-3.77423 8.16121,-10.1822 1.08218,-3.47971 2.43164,-6.60499 2.99889,-6.94508 0.77744,-0.46615 0.82501,-0.86687 0.19306,-1.62826 -0.96697,-1.16508 -0.4041,-6.44525 1.21525,-11.40078 0.61681,-1.88763 0.98981,-5.59455 0.89863,-8.93189 -0.0856,-3.13779 0.23818,-7.882216 0.7196,-10.543175 0.83655,-4.623124 1.99651,-16.356706 3.99918,-40.453797 0.81473,-9.803131 0.78289,-11.44438 -0.28173,-14.514325 -2.35913,-6.802908 -3.05961,-12.010945 -2.03363,-15.119713 0.70525,-2.137014 0.74023,-3.551856 0.13933,-5.645075 -0.44085,-1.536325 -1.03354,-6.896404 -1.31706,-11.9112893 -0.28352,-5.0148851 -0.80082,-9.117973 -1.14961,-9.117973 -0.34878,0 -2.52833,0.70870607 -4.84346,1.57490421 -5.4248,2.02968869 -9.68456,1.58866029 -11.93673,-1.23587147 -2.57722,-3.23216564 -1.64674,-5.22444504 11.11826,-23.80594844 4.89758,-7.129229 5.77091,-7.480066 11.67086,-4.688673 3.1444,1.48766 4.35214,1.573397 19.7246,1.400251 26.20193,-0.295125 27.59284,-0.272291 42.05432,0.690339 7.5735,0.504131 14.94231,0.918371 16.37514,0.920534 3.31691,0.0049 14.92347,3.177867 18.9097,5.169328 1.67638,0.837439 4.94552,2.994868 7.26483,4.794284 2.31939,1.799415 4.49654,3.278816 4.83811,3.287555 0.72511,0.01861 4.71492,5.4909989 4.71492,6.4670059 0,0.3644398 0.3901,1.0527467 0.86698,1.5295725 0.47683,0.4768258 1.00246,2.8579891 1.16815,5.29147376 0.64533,9.47796554 -4.52215,22.42074484 -12.99405,32.54575784 -9.51588,11.372762 -10.97185,13.278493 -10.98525,14.378516 -0.0254,2.103965 -9.38734,8.935664 -14.08545,10.27876 l -4.39575,1.256687 3.31046,3.009111 c 3.71908,3.380528 5.76725,6.059083 9.9438,13.00406 1.5825,2.631565 4.8265,7.371402 7.20885,10.532971 2.38228,3.161571 4.33145,5.956932 4.33145,6.211923 0,0.723118 14.78452,22.750197 17.66729,26.322097 1.9598,2.42826 2.46631,3.63064 2.11655,5.02419 -0.37967,1.51292 -0.18631,1.83198 1.11091,1.83198 0.95296,0 4.37774,2.63453 8.70836,6.69892 3.92573,3.68441 7.50846,6.69892 7.96159,6.69892 0.45316,0 2.47928,1.68059 4.50242,3.73464 3.25649,3.30619 3.57336,3.90297 2.76212,5.20202 -0.8175,1.30904 -0.7307,1.45203 0.80447,1.32498 0.94648,-0.0783 3.7103,0.98266 6.14187,2.35778 2.43147,1.37512 6.09564,3.13336 8.14253,3.90722 l 3.72162,1.40699 -3.34946,-0.32485 c -1.8422,-0.17864 -4.01935,-0.55669 -4.8381,-0.84002 l -1.48865,-0.51514 1.48865,1.25423 c 1.47985,1.24681 1.47927,1.25144 -0.0975,0.78305 -0.87235,-0.25916 -5.89654,-0.43412 -11.16487,-0.38884 -13.40886,0.11537 -13.63528,0.11281 -24.79686,-0.26512 -8.64959,-0.29289 -9.71039,-0.20771 -7.81541,0.62784 2.78927,1.2299 2.23074,1.19069 -6.36725,-0.44717 z m -672.620376,-4.1318 c -1.888513,-1.88852 -5.312894,-4.53739 -7.609739,-5.88639 -2.296845,-1.349 -4.988089,-3.32079 -5.980553,-4.38175 -0.992463,-1.06096 -2.49972,-1.93506 -3.349459,-1.94244 -2.69806,-0.0234 -6.085154,-5.00754 -6.566639,-9.6628 -0.543566,-5.25536 -12.863808,-39.163208 -15.177401,-41.771321 -0.588223,-0.663102 -2.35461,-5.184872 -3.925306,-10.048378 -1.570694,-4.863497 -4.271624,-12.359662 -6.002066,-16.658135 -1.730443,-4.298473 -3.784115,-9.992554 -4.563706,-12.653513 -0.779599,-2.66096 -1.787258,-5.968016 -2.239249,-7.349012 -0.606408,-1.852823 -0.600921,-2.647413 0.02093,-3.031745 0.611286,-0.377795 0.531427,-1.265902 -0.29077,-3.233703 -0.6234,-1.492072 -1.133478,-3.623503 -1.133478,-4.736515 0,-1.113009 -1.462516,-5.226852 -3.250041,-9.141879 -1.787542,-3.915028 -3.817493,-8.689778 -4.511024,-10.61056 -0.693534,-1.9207825 -1.994315,-4.4934535 -2.890637,-5.7170506 -0.896316,-1.2235948 -3.549429,-4.84370686 -5.895807,-8.0446946 -2.346378,-3.2009877 -4.932749,-7.1622348 -5.747494,-8.8027728 -0.861057,-1.733792 -2.535601,-3.550543 -3.999031,-4.338655 -1.384724,-0.745722 -3.718354,-2.792258 -5.185854,-4.547856 l -2.66818,-3.191996 6.10087,-0.495022 c 3.944141,-0.320027 6.969901,-0.192082 8.559145,0.36194 1.52445,0.531426 4.067048,0.661381 6.693292,0.3421 6.329199,-0.769454 47.52174,-0.166403 48.39667,0.708518 0.157704,0.157611 -0.838225,0.765433 -2.212946,1.350723 -3.718388,1.58309 -5.633162,4.095714 -7.210874,9.462314 -1.715854,5.8363934 -1.693733,10.89648 0.05931,13.5718468 0.716412,1.0933217 1.307522,2.920745 1.31357,4.0609382 0.02466,4.6387781 4.988299,21.606333 9.321127,31.862771 1.668333,3.949222 2.774167,8.108111 3.265583,12.281351 2.675242,22.719184 4.823548,32.69042 10.251579,47.582317 l 2.021027,5.544709 1.297567,-2.975562 c 0.713644,-1.636553 1.679312,-4.634096 2.145933,-6.661196 0.466622,-2.0271 1.966901,-7.704985 3.333968,-12.617525 1.367068,-4.912541 3.148167,-11.443987 3.9579916,-14.514325 0.8098249,-3.070338 2.5110246,-9.323599 3.7804233,-13.896149 1.2693986,-4.57254 2.5088847,-9.931675 2.7543721,-11.909189 C -2.1433917,32.450934 0.27968634,24.806798 4.5967209,15.714011 8.9547166,6.5349195 9.0507577,6.1963705 8.9740225,0.28614461 8.9109876,-4.5768333 9.158708,-6.0475274 10.243654,-7.2462967 c 0.74144,-0.819287 1.0274,-1.4896139 0.635443,-1.4896139 -0.700106,0 -2.6737987,-5.0563064 -3.5733612,-9.1544244 -0.346134,-1.576837 -1.2659793,-2.429974 -3.783447,-3.509089 -1.8293632,-0.784162 -3.3261296,-1.701311 -3.3261296,-2.038111 0,-0.3368 3.265723,-0.511183 7.2571622,-0.387514 20.8810656,0.64696 40.5613026,0.99168 51.3583786,0.899593 10.509208,-0.08962 12.09527,0.0492 12.09527,1.05872 0,0.719992 -1.189802,1.518349 -3.128371,2.099162 -2.222692,0.665933 -4.697315,2.506226 -8.547728,6.356637 -2.980647,2.980642 -5.771491,5.4193507 -6.201873,5.4193507 -0.545171,0 -0.54338,0.4468226 0.007,1.4731086 0.624302,1.166533 0.281215,2.6576077 -1.648539,7.16470549 -1.340341,3.13037921 -3.1848,6.40309421 -4.09883,7.27270231 -0.91403,0.8696081 -1.667659,1.9014998 -1.67473,2.2930939 -0.007,0.391593 -1.394003,2.68096 -3.082084,5.087482 -2.334922,3.328551 -8.095713,15.203785 -8.095713,16.688256 0,0.117789 -0.874488,0.214156 -1.943268,0.214156 -1.921636,0 -1.926707,0.01442 -0.45462,1.302568 1.478833,1.293956 1.466831,1.359143 -1.817779,9.862297 -3.565942,9.231483 -9.911562,29.469638 -9.950174,31.734163 -0.01396,0.763551 -0.515445,2.038444 -1.116487,2.833101 -0.601042,0.794655 -1.092807,2.039337 -1.092807,2.76596 0,0.726624 -0.477578,2.421071 -1.061244,3.765439 -0.58369,1.344371 -1.560965,3.951567 -2.171729,5.79377 -0.610742,1.842203 -1.61765,4.856716 -2.237532,6.698919 -0.619906,1.842203 -2.347018,7.368815 -3.8380155,12.281355 -1.4910212,4.91254 -3.6586332,11.10904 -4.8169647,13.77 -1.8845129,4.3292 -6.1685646,17.71771 -8.2168056,25.67919 -0.5555916,2.15953 -1.4909979,3.43729 -3.4056095,4.65202 -1.4518278,0.9211 -3.1276737,1.67473 -3.7241107,1.67473 -0.596459,0 -2.629628,-1.54515 -4.518118,-3.43365 z m 102.032468,-5.39577 c 0.541217,-0.87569 -21.154698,-1.11791 -34.803954,-0.38856 -9.674891,0.51698 -10.542913,0.13075 -6.373859,-2.83602 5.624603,-4.00256 11.001253,-9.63611 11.530072,-12.08103 0.735858,-3.40201 4.516677,-10.56369 7.708758,-14.60197 1.546659,-1.95666 3.203618,-5.11241 3.682126,-7.01278 0.478531,-1.90037 2.007605,-5.69819 3.39798,-8.4396 1.390375,-2.741425 2.916635,-7.152768 3.391677,-9.803002 0.475065,-2.650225 1.184871,-5.418621 1.577339,-6.15199 0.392492,-0.733359 2.019817,-5.933797 3.616253,-11.556535 1.59646,-5.622731 4.135653,-13.740078 5.64263,-18.038551 1.507001,-4.298473 4.005302,-11.499811 5.551776,-16.002973 4.150003,-12.084418 8.118717,-22.152402 9.23746,-23.434001 1.57464,-1.803839 7.11832,-18.8177653 7.11832,-21.8466327 0,-4.6649923 5.53615,-12.4033183 8.87556,-12.4060983 2.80643,-0.0023 10.52114,-4.273368 12.9501,-7.169462 1.84339,-2.197896 2.53501,-2.505158 5.63877,-2.505158 3.8553,0 6.76068,2.090958 6.78917,4.88608 0.007,0.792372 1.02912,4.287717 2.269,7.767433 1.23986,3.479717 2.9281,9.1737978 3.75163,12.653514 0.82352,3.47971627 2.81769,9.4372882 4.4315,13.239048 1.61381,3.801762 3.90019,10.333206 5.08085,14.514327 1.18064,4.181116 3.16263,9.83405 4.40444,12.562073 1.24179,2.728023 2.06346,5.154381 1.82595,5.391909 -0.23753,0.237521 0.10257,1.522434 0.75574,2.855354 1.25472,2.560512 2.60439,6.530285 5.12593,15.077019 0.84546,2.865649 2.70055,8.166466 4.12244,11.779589 2.37896,6.045132 2.49091,6.673565 1.40289,7.875807 -1.31631,1.454505 -0.88261,2.302172 1.17792,2.302172 0.75053,0 1.3646,0.34041 1.3646,0.756464 0,1.470257 7.63481,19.027494 10.12679,23.287874 1.3897,2.37586 2.52672,4.7523 2.52672,5.28099 0,0.52869 0.70576,1.59931 1.56839,2.37917 0.86262,0.77987 3.66907,5.77223 6.2366,11.09415 5.01881,10.40301 7.93029,13.73875 15.2767,17.50295 1.89167,0.96928 2.90875,1.85952 2.34378,2.05155 -1.36332,0.4634 -9.09113,-0.22722 -10.84718,-0.9694 -0.84085,-0.35539 -1.25023,-0.3199 -0.999,0.0866 0.25586,0.41401 -4.96536,0.64282 -13.08966,0.57363 -16.7423,-0.14258 -27.75541,0.43971 -26.4033,1.39604 0.67015,0.47397 0.392,0.56852 -0.882,0.29982 -1.02345,-0.21585 -5.34313,-0.62915 -9.5993,-0.91844 l -7.73846,-0.526 2.70599,-1.38825 c 3.16487,-1.62368 4.47642,-3.45768 5.76398,-8.06012 0.51538,-1.84221 1.43357,-3.93562 2.04047,-4.65203 0.66524,-0.7853 0.77594,-1.30257 0.27873,-1.30257 -1.07685,0 -2.37391,-4.74701 -2.37916,-8.70739 -0.005,-3.57527 -2.49696,-11.88208 -6.31164,-21.037496 -1.44343,-3.464271 -2.6244,-7.089035 -2.6244,-8.055027 0,-0.965991 -0.80998,-3.155779 -1.79998,-4.866192 -0.99,-1.710411 -2.17522,-4.533359 -2.63384,-6.273217 -0.73872,-2.80253 -1.08001,-3.163378 -2.99193,-3.163378 -5.11288,0 -23.89137,5.66489 -26.90004,8.114915 -0.92971,0.757066 -2.37649,4.434549 -3.98177,10.121031 -1.38683,4.912544 -3.20492,10.774094 -4.04023,13.025674 -0.83532,2.25158 -1.52968,4.78364 -1.54306,5.6268 -0.0139,0.84316 -0.72669,4.31061 -1.585153,7.70543 -0.858485,3.39482 -1.388584,6.89179 -1.177987,7.77104 2.20276,9.19662 3.16077,10.69772 9.00084,14.10344 l 2.29775,1.33997 -3.31255,-0.44221 c -1.82189,-0.24321 -3.75549,-0.80982 -4.29689,-1.25915 -0.76416,-0.6342 -0.87935,-0.54329 -0.51493,0.40638 0.41314,1.07665 -0.23542,1.20995 -5.408565,1.11164 -3.23288,-0.0614 -6.596435,0.2728 -7.474551,0.74275 -1.883164,1.00784 -3.436732,1.12275 -2.874232,0.2126 z M 122.9365,67.921396 c 6.86739,-1.723995 13.30721,-4.653574 13.9581,-6.349784 0.41494,-1.081303 -1.51163,-10.525774 -2.72667,-13.366711 -0.35018,-0.818757 -1.31533,-4.000744 -2.14479,-7.071082 -2.96748,-10.984477 -5.27528,-18.839653 -5.643,-19.20737 -0.69653,-0.696525 -4.18864,8.235888 -5.68813,14.549568 -0.8202,3.453472 -1.96685,7.337779 -2.54812,8.631794 -0.83728,1.86396 -4.06611,21.255656 -4.06611,24.420144 0,0.404159 0.58616,0.561242 1.30257,0.349088 0.71641,-0.212156 4.11667,-1.0922 7.55615,-1.955647 z M 278.9456,145.9739 c -1.63752,-0.38744 -10.0949,-0.59395 -18.79419,-0.4589 -8.69929,0.13505 -15.81689,0.1748 -15.81689,0.0884 0,-0.0864 1.92594,-0.87439 4.27986,-1.75097 4.85388,-1.80754 7.84216,-4.31774 9.18866,-7.71858 0.50772,-1.28239 1.26752,-2.77989 1.68843,-3.32778 0.42092,-0.54789 0.67594,-2.4493 0.56671,-4.22537 -0.12142,-1.97258 0.25212,-3.91706 0.9596,-4.99682 1.33325,-2.03478 1.30626,-1.52915 1.26754,-23.753791 -0.0163,-9.268973 0.30498,-17.977568 0.71364,-19.352432 1.04473,-3.514863 0.8783,-14.209166 -0.39784,-25.563387 -0.95253,-8.474781 -0.95241,-10.446659 7.4e-4,-16.002973 0.71455,-4.164688 0.98253,-9.526749 0.78175,-15.641224 -0.16794,-5.11723 -5.3e-4,-10.943775 0.37224,-12.94788 0.44517,-2.3932078 0.41519,-3.9602385 -0.0872,-4.56573 -1.10253,-1.3284677 -31.27776,-2.209999 -38.68661,-1.1301797 -7.58664,1.105731 -23.30614,4.9389129 -28.1502,6.8643867 -3.70546,1.472888 -4.0398,1.493799 -5.2079,0.325705 -1.1681,-1.168094 -1.0428,-1.649439 1.95166,-7.4973791 1.75996,-3.43703153 4.17162,-7.4718718 5.35923,-8.9663146 1.18764,-1.4944428 3.56376,-5.6215603 5.28029,-9.1713763 l 3.12109,-6.454206 5.28747,-2.364206 c 7.86069,-3.514786 11.29338,-3.742424 18.31312,-1.214431 0.61407,0.221134 4.50989,0.371828 8.65735,0.334858 4.14747,-0.03698 10.34397,0.426086 13.77,1.029019 3.42604,0.602931 7.75314,1.096697 9.61581,1.097257 1.86268,5.59e-4 3.76154,0.375868 4.21969,0.834018 0.61447,0.614456 1.86614,0.585158 4.77082,-0.111672 2.87975,-0.69084 7.64586,-0.811374 17.7379,-0.448588 27.37325,0.984011 37.73187,0.56945 45.13427,-1.806301 1.26805,-0.406975 6.07918,-1.165337 10.69138,-1.68525 6.89131,-0.776821 8.72234,-0.770717 10.27391,0.03424 1.58502,0.822316 2.07915,0.808178 3.07862,-0.08809 0.65479,-0.587191 3.36767,-1.615965 6.02863,-2.286164 2.66096,-0.670199 5.47381,-1.406659 6.25074,-1.636581 1.24758,-0.369199 1.35535,-0.131606 0.92231,2.033561 -0.26967,1.348381 -1.46313,3.982503 -2.65209,5.853604 -1.18899,1.871099 -3.5505,6.342465 -5.24779,9.936365 -2.09483,4.4356541 -4.49142,8.0367603 -7.46178,11.21208978 l -4.37579,4.67772722 -5.81306,0.1541216 c -3.1972,0.08476 -9.44545,-0.4118974 -13.88502,-1.1036887 -7.02684,-1.0949453 -8.9061,-1.133092 -14.51433,-0.2946246 -3.54331,0.5297473 -7.61469,1.0578663 -9.04751,1.1735972 -1.43283,0.1157191 -3.77524,0.5763908 -5.20534,1.0236901 -1.43013,0.4472994 -5.05764,0.8132721 -8.06115,0.8132721 h -5.46092 l 0.51814,7.3082553 c 0.43292,6.106472 0.49528,15.606372 0.33308,50.749042 -0.007,1.432825 0.33814,5.787122 0.7661,9.676217 1.77914,16.168108 1.77314,17.88997 -0.067,19.1789 -1.63937,1.148269 -1.64242,1.178928 -0.17073,1.723334 1.21704,0.450212 1.59432,1.491186 2.00963,5.544819 0.28122,2.74481 1.2787,6.87915 2.21664,9.18743 0.93795,2.30829 1.56653,4.61331 1.39689,5.12228 -0.16956,0.50898 0.0284,0.9254 0.44015,0.9254 1.77382,0 3.73444,11.56042 2.38747,14.07727 -0.45729,0.85444 -0.55064,1.55354 -0.20748,1.55354 0.3432,0 2.04175,2.0104 3.77459,4.46756 2.37599,3.36914 4.19629,5.00934 7.4037,6.67112 l 4.25307,2.20357 -15.03424,-0.15828 c -11.2119,-0.11805 -15.27107,0.0783 -15.96576,0.77212 -1.05212,1.05086 -1.33664,1.05484 -5.4719,0.0764 z m 202.82838,0.009 c -1.76784,-0.71281 -10.88209,-0.80199 -29.66633,-0.29031 l -8.45308,0.23028 3.24281,-1.89103 c 4.77079,-2.78207 5.54645,-3.61977 6.92154,-7.47519 0.68641,-1.9245 1.53857,-4.04156 1.89368,-4.70456 0.39777,-0.74262 0.2567,-2.31447 -0.36739,-4.09379 -0.63791,-1.81866 -0.86033,-4.41442 -0.60058,-7.0092 0.37112,-3.70745 0.14165,-4.6409 -2.28719,-9.30405 -1.48484,-2.85075 -3.00596,-5.68559 -3.38026,-6.29966 -2.05847,-3.37705 -5.37572,-11.605739 -6.06096,-15.034737 -1.85467,-9.28081 -2.41906,-11.687603 -2.93741,-12.526324 -1.41803,-2.294394 -23.22517,4.18751 -28.4634,8.460378 -2.49479,2.03502 -8.18273,17.769533 -9.84846,27.243673 -0.59146,3.36404 -1.75184,7.21097 -2.57862,8.54875 -0.8268,1.33777 -1.269,2.66658 -0.98267,2.95291 0.28633,0.28634 0.56392,1.92871 0.61686,3.64973 0.24702,8.03003 2.86939,12.61832 9.26335,16.20785 l 2.60513,1.4625 -7.44324,-0.44341 c -4.09378,-0.24386 -8.07134,-0.62075 -8.83901,-0.8375 -0.76768,-0.21676 -1.21974,-0.10702 -1.00456,0.24388 0.21515,0.35089 -6.10686,0.65286 -14.04896,0.67103 -7.94208,0.0182 -14.44017,-0.21373 -14.44017,-0.51541 0,-0.30167 -1.389,-0.6515 -3.08669,-0.77738 -2.91717,-0.2163 -3.20578,-0.45678 -5.25521,-4.3787 -2.14617,-4.10708 -2.15773,-4.19644 -1.12337,-8.67376 0.57482,-2.48815 1.78151,-5.47745 2.68152,-6.64287 0.9,-1.16542 2.95953,-3.78454 4.57671,-5.82024 1.61716,-2.03571 3.66612,-5.88235 4.55324,-8.5481 0.8871,-2.66574 2.70469,-7.0292 4.03908,-9.69655 2.80854,-5.614064 4.18475,-11.623562 4.34925,-18.991903 0.0972,-4.356561 0.5167,-5.942022 2.55987,-9.676216 1.34397,-2.456271 3.45983,-7.312987 4.70189,-10.792703 6.10888,-17.114317 7.26784,-20.560315 7.28845,-21.671108 0.0116,-0.661204 0.67234,-2.028581 1.46681,-3.038606 0.7945,-1.010034 2.82336,-5.325759 4.5086,-9.590514 1.68525,-4.264755 3.37465,-8.423989 3.75428,-9.242745 0.37961,-0.818757 2.05469,-5.339127 3.72235,-10.0452689 2.69305,-7.5997072 3.51186,-11.200318 4.95513,-21.7898921 0.32366,-2.374725 0.89935,-3.109397 3.74181,-4.775192 2.74765,-1.610227 3.61137,-1.811253 4.74376,-1.10407 2.04466,1.276921 8.89438,-1.987109 12.96976,-6.180372 1.80129,-1.853391 3.76675,-3.3698 4.36772,-3.3698 2.03168,0 6.38488,3.330374 6.81045,5.21027 0.23167,1.023446 1.55285,5.545216 2.93589,10.048379 1.38305,4.5031617 2.73958,9.4316797 3.01452,10.9522645 0.27496,1.5205825 0.96248,3.14859894 1.52784,3.61781169 1.08813,0.90306081 5.21711,13.06088881 8.12172,23.91443081 0.95585,3.571729 2.2677,7.25042 2.91517,8.174854 0.64749,0.924437 1.17729,2.289498 1.17729,3.033473 0,0.743982 0.62337,2.595391 1.38535,4.114253 0.76188,1.518861 1.24323,3.159819 1.06959,3.646577 -0.17375,0.48676 0.17492,1.659071 0.77454,2.605135 0.59969,0.946067 1.32473,2.842628 1.61123,4.214588 0.28656,1.371955 1.32155,4.243095 2.29996,6.380311 0.97842,2.137216 2.29952,6.876254 2.93562,10.531208 0.70108,4.027732 2.27688,9.137497 4.0006,12.972121 1.56413,3.479716 4.07785,9.69312 5.58608,13.807565 1.50821,4.114456 3.81376,9.253109 5.12356,11.419229 1.30971,2.16613 2.92161,4.90546 3.58197,6.0874 0.66045,1.18193 1.89565,2.7422 2.745,3.46726 0.84934,0.72505 2.60892,3.89631 3.9101,7.04724 2.05119,4.96718 2.257,6.0411 1.54752,8.07627 -0.6999,2.00789 -0.65352,2.28408 0.32101,1.91013 0.75312,-0.289 2.89186,1.3154 6.30994,4.73352 3.54068,3.54061 6.05924,5.40995 7.98906,5.92961 1.55013,0.41739 3.47793,1.25751 4.28403,1.86693 1.35795,1.02661 1.17485,1.10978 -2.49169,1.13172 -3.14501,0.0188 -4.48195,-0.37647 -6.51284,-1.92549 -2.68583,-2.04859 -3.41615,-1.72419 -1.32364,0.58798 0.6775,0.74865 0.86476,1.36118 0.41608,1.36118 -0.44867,0 -1.02278,-0.33495 -1.27578,-0.74433 -0.253,-0.40938 -0.79494,-0.74432 -1.20431,-0.74432 -0.40938,0 -0.54894,0.31614 -0.31015,0.70254 0.26565,0.42984 -1.55401,0.53584 -4.68792,0.27311 -6.15198,-0.51576 -14.27517,0.32421 -12.71104,1.31438 1.4896,0.94299 -2.11404,0.81787 -4.53279,-0.15738 z m -58.8057,-78.487967 c 10.05678,-3.146919 14.14624,-5.175426 14.14624,-7.016952 0,-0.868203 -0.35139,-2.235118 -0.78087,-3.037595 -0.42947,-0.802479 -0.93173,-2.637499 -1.11614,-4.077811 -0.18445,-1.440312 -1.15861,-5.199754 -2.16491,-8.354312 -1.0063,-3.154549 -2.21334,-7.305923 -2.68231,-9.225252 -1.21641,-4.978504 -2.87963,-6.288677 -6.57702,-5.180923 -3.16544,0.948398 -2.76858,-0.03512 -6.05172,14.997377 -0.8062,3.691403 -3.68066,22.123701 -3.6932,23.682458 -0.005,0.589208 0.512,0.823095 1.29468,0.586021 0.71641,-0.216994 4.14779,-1.284853 7.62525,-2.373011 z m -76.8559,78.038017 -4.28838,-0.26882 3.91622,-5.13188 c 2.74151,-3.59253 4.41854,-5.14417 5.59092,-5.17288 0.9211,-0.0226 1.67473,0.38368 1.67473,0.90272 0,0.51903 0.83736,2.176 1.86081,3.68213 1.02344,1.50614 1.85869,3.00741 1.85611,3.33617 -0.007,0.79924 -4.35202,3.24004 -5.45197,3.06212 -0.47855,-0.0774 -2.79984,-0.26171 -5.15844,-0.40956 z m -380.366226,-1.74618 c -3.233554,-1.70662 -3.027469,-2.91379 0.497418,-2.91379 1.582131,0 2.999162,0.60429 4.056661,1.72995 2.8068,2.9877 0.164914,3.67446 -4.554079,1.18384 z M -205.6293,66.049765 c -6.62037,-4.587778 -11.45968,-8.708372 -19.04657,-16.217846 -4.74603,-4.697594 -6.1181,-7.251654 -4.44962,-8.282827 0.37101,-0.229298 1.4399,-3.314006 2.37531,-6.854899 0.9354,-3.540893 2.42089,-7.30867 3.30108,-8.37283 0.88018,-1.064161 1.78747,-2.604733 2.0162,-3.42349 0.22872,-0.818756 2.00061,-5.508 3.93751,-10.42054 3.13427,-7.949412 4.67549,-12.00008312 8.81977,-23.180444 1.95166,-5.265164 4.18258,-14.558163 4.18258,-17.422762 0,-3.595559 4.65183,-9.62537 7.44324,-9.648111 1.21988,-0.01 2.9836,-1.177684 5.12057,-3.390263 1.79286,-1.856305 5.20602,-4.357575 7.5848,-5.558374 2.49165,-1.257785 5.36935,-3.48371 6.78862,-5.25106 1.35497,-1.687281 3.75767,-3.728467 5.33934,-4.535968 l 2.87576,-1.468184 2.00307,1.91907 c 1.1017,1.055487 2.39165,1.919068 2.86658,1.919068 1.1601,0 2.40451,2.450449 2.40451,4.734887 0,1.020499 1.31196,5.879618 2.91547,10.798041 1.60351,4.918421 3.31308,10.888144 3.79905,13.266046 0.48596,2.377902 1.35849,4.860375 1.93896,5.516604 1.38022,1.560355 7.7624,20.65734232 10.33779,30.933075 1.11203,4.43701 2.44163,8.407027 2.95466,8.822255 0.51302,0.415228 1.18582,1.922485 1.4951,3.349459 0.30928,1.426975 1.1906,4.197892 1.95848,6.157593 0.76789,1.959704 1.39616,4.227772 1.39616,5.040148 0,0.812379 0.885,2.814381 1.96667,4.448894 1.93294,2.920854 1.94266,2.998362 0.56727,4.518161 -0.76968,0.850471 -2.65951,2.155139 -4.19965,2.899247 l -2.80023,1.352929 v -1.917319 c 0,-2.449997 -0.74805,-1.744422 -1.10476,1.042037 -0.14975,1.169773 -0.5946,2.970524 -0.98855,4.001667 -0.75857,1.985478 -7.03559,8.173574 -8.29102,8.173574 -0.40775,0 -2.24862,1.507257 -4.09083,3.34946 -1.8422,1.842203 -3.85208,3.349459 -4.46641,3.349459 -0.61433,0 -1.63062,0.993315 -2.25844,2.207362 -1.45639,2.816358 -3.10129,2.271447 -4.08719,-1.35398 -0.40595,-1.492807 -1.60468,-5.896179 -2.66384,-9.785274 -1.05916,-3.889094 -2.18224,-8.74581 -2.49574,-10.792702 -0.31351,-2.046892 -0.92701,-4.558987 -1.36335,-5.582433 -1.31367,-3.081242 -4.65792,-15.272888 -4.71551,-17.19064 -0.0321,-1.06928 -1.03135,-2.599925 -2.4825,-3.802716 -2.40517,-1.993524 -2.45464,-2.000758 -5.09077,-0.744324 -2.56058,1.220424 -2.72233,1.538132 -4.2457,8.339842 -0.87103,3.889095 -2.10987,8.243392 -2.75297,9.676216 -1.12244,2.500774 -2.93538,11.573432 -3.71835,18.608109 -0.20503,1.842202 -0.6415,4.019351 -0.96991,4.838108 -0.3284,0.818757 -1.15842,3.414588 -1.84448,5.768513 -0.68606,2.353926 -1.49037,4.279865 -1.78736,4.279865 -0.29699,0 -3.21065,-1.850718 -6.4748,-4.112703 z M 522.33944,5.9644949 c 1.13219,-4.0152809 2.07897,-5.63358383 3.8506,-6.5817344 1.74544,-0.9341643 2.02873,-0.8525282 3.6725,1.05848502 0.97969,1.13889768 1.78117,2.38134708 1.78117,2.76100128 0,0.8491252 -6.94215,4.4369778 -8.58511,4.4369778 -0.87928,0 -1.06766,-0.4388187 -0.71916,-1.6747297 z M -201.07023,-40.657376 c -1.21061,-0.474911 -0.9223,-0.844136 1.99335,-2.552821 1.87476,-1.098683 4.52132,-1.996005 5.88125,-1.994049 l 2.47259,0.0035 -2.83264,2.601578 c -2.77964,2.552898 -4.69499,3.04782 -7.51455,1.941726 z" style="fill:#006da5;fill-opacity:1;stroke-width:0.744324"/>
  </g>
</svg>